<?xml version="1.0" encoding="UTF-8"?>
<svg viewBox="0 0 1000 1000" xmlns="http://www.w3.org/2000/svg">
 <g transform="translate(-99.681 -221.99)">
  <path d="m499.74 1022.7c-7.3262 13.646-13.154 27.528-13.739 41.967 0 0 2.8046 13.446-0.74941 18.485-3.7249 5.282-11.591 6.3058-17.986 7.2442-9.0177 1.3234-16.608-4.0445-29.227-3.2474-16.052 1.014-17.102 5.1184-25.73 6.4949-6.5214 1.0404-15.72 1.844-22.232 0.7494-5.2194-0.8773-9.6198-0.7637-11.991-5.4957-2.2169-4.425-1.3825-9.6249 1.9984-13.24 5.2194-5.5802 14.58-6.5562 23.232-7.7439 10.261-1.4086 19.612-7.2407 28.228-12.99 19.758-13.184 28.956-41.156 27.728-40.718 9.0286-23.222 7.0929-51.919 9.9921-80.187 2.1702-21.16 13.475-26.919 20.234-31.475 6.079-4.0977-0.7171-22.118 1.2054-32.08 2.3826-12.345 13.533-13.135 13.533-13.135 0.46657-3.9868 0.12673-8.1349 3.747-11.491-1.8983-29.535-4.593-59.582 3.4972-83.434 2.7002-7.9608-3.5288-5.9501-5.7455-4.7462-34.093 18.517-45.924-2.7905-52.459-12.49-2.6619-3.9514-3.7682-3.7258-7.2443-3.9968-9.3334 1.2046-16.062 1.2928-20.734 0.49961-1.5705 2.7517-4.175 5.1587-7.7439 7.2443-1.4068 7.161-4.9167 15.236-10.742 21.483 0 0-12.323 11.642-17.236 18.485-3.4765 4.8423-4.5239 11.29-8.4933 15.738-7.5676 8.4787-16.804 17.41-27.978 19.485-10.623 1.972-22.276-2.0766-31.475-7.7439-8.3969-5.1732-12.725-15.074-19.235-22.482-3.0355-3.4544-4.9264-8.6555-9.2427-10.242-11.378-4.1819-4.726-10.435-3.747-15.738 1.1149-6.0395 0.99607-9.7482-0.2498-15.238-1.8658-8.2211-7.3586-15.801-7.2443-24.231 0.0868-6.398 6.2167-11.841 5.9953-18.236-0.084-2.4262-2.5881-4.3223-2.7478-6.7447-0.13023-1.975 1.5841-3.768 1.4988-5.7455-0.28927-6.7096-6.3809-12.279-6.7447-18.985-0.54695-10.084 3.6057-19.964 6.9945-29.477 2.0496-5.7534 3.5456-12.302 7.9937-16.487 1.1149-1.049 3.3797-0.48688 4.2466-1.7486 1.981-2.8833-1.9025-7.734 0.2498-10.492 1.5412-1.9747 5.3165-0.39887 7.2443-1.9984 3.2098-2.6633 2.2702-8.5968 5.4957-11.241 1.2652-1.0372 3.5294-0.15553 4.7462-1.249 1.3918-1.2507 0.77702-3.8283 1.9984-5.2458 0.99777-1.158 3.9968-2.2482 3.9968-2.2482 1.3448-5.912-4e-3 -11.824-1.249-17.736-6.1968 3.774-8.476-0.74683-11.741-3.747-2.6754-2.4586-4.227-4.1382-5.9953-6.4949-11.906-15.868-5.3356-20.752-1.4988-19.984 0 0-14.307-25.931-13.489-39.968 0.49838-8.5523 4.8644-17.244 10.991-23.232 8.9309-8.7277 21.737-15.03 34.223-15.238 15.275-0.25461 30.092 8.2781 42.466 17.236 4.8306 3.497 16.679 26.979 15.238 39.469 0 0-0.0463 6.6498 0.99921 9.7423 0.96968 2.8681 4.7462 7.7439 4.7462 7.7439s12.445-11.245 20.234-13.489c5.9232-1.7064 12.967 3.2458 18.485 0.4996 2.5651-1.2765 2.4217-5.7367 4.9961-6.9945 10.783-5.268 25.181 6.751 35.972 1.4988 2.9505-1.4361 3.0223-6.1628 5.7455-7.9937 3.8381-2.5805 8.8653-3.1576 13.489-3.2474 2.1225-0.0412 4.2432 1.9556 6.2451 1.249 1.8398-0.64941 1.8374-4.097 3.747-4.4964 3.4627-0.72432 6.1132 3.6996 9.4925 4.7462 4.657 1.4424 9.702 1.0728 14.489 1.9984 3.0337 0.58666 5.9069 2.4026 8.9929 2.2482 14.758-0.73805 26.991-16.203 41.717-14.988 6.4644 0.53346 11.295 6.3815 16.987 9.4925 4.8051 2.6264 10.371 4.1338 14.489 7.7439 4.0832 3.5799 5.1216 10.017 9.4925 13.24 5.2987 3.9062 12.238 7.3049 18.735 6.2451 9.9768-1.6274 15.528-13.093 24.231-18.236 5.4227-3.2043 12.051-4.1675 17.236-7.7439 1.9387-1.3372 2.9525-3.8252 4.996-4.996 1.7173-0.98395 4.2596-0.19123 5.7455-1.4988 5.5252-4.8625 3.7744-14.636 8.2435-20.484 6.2797-8.2172 18.285-10.648 24.73-18.735 5.1798-6.4994 3.6104-17.723 10.242-22.732 32.245-24.358 104.82-67.931 106.17-70.694 1.4896-3.0612 6.8834 0.88804 11.491 11.241 0 0 6.5928-5.214 9.7423-7.9937 3.3562-2.9621 5.8344-7.0596 9.7423-9.2427 5.9422-3.3196 13.883-1.768 19.734-5.2458 6.2729-3.7285 15.078-13.724 23.232-8.7431 10.876 6.6434 10.843 22.322 11.491 31.975 0.3819 5.6884-1.155 11.348-1.9984 16.987-0.55089 3.6829-0.71236 7.4966-1.9984 10.991-2.0037 5.4447-6.4686 7.5664-13.489 10.242-1.8786 0.7159-1.9991 5.2943-6.4949 4.7462-4.8683-0.59349-11.487-4.5944-11.241-9.4925 0.24132-4.8011 6.5425-2.5931 5.2458-4.4964-1.875-2.7523 1.6646-5.3112 0.74941-6.4949-1.8452-2.3866-6.5775-3.9525-10.242-3.9968-8.0596-0.0974-22.732 8.2435-22.732 8.2435 1.8325 6.8273 7.7941 8.8372 5.4957 20.484-17.805 19.024-20.725 11.901-27.978 20.734 0 0-19.953 25.753-30.976 37.72-15.239 16.546-33.095 30.535-48.462 46.963-14.166 15.144-25.491 32.864-40.218 47.462-13.311 13.195-35.033 19.109-43.216 35.972-10.816 22.289-42.725 50.607-44.715 47.712-2.9847 8.9355-5.9139 17.982-8.2435 28.228 0 0 7.3692 15.192 6.7447 23.232-2.2878 29.451-25.48 49.461-25.48 49.461s-9.3227 33.076-14.489 49.461c-3.8322 12.155-9.4881 23.778-12.24 36.221-1.6462 7.4431-0.50481 15.374-2.498 22.732-1.5497 5.7204-5.4749 10.581-7.2443 16.237-2.2769 7.2788-2.8361 14.987-4.2466 22.482-1.0028 5.3284-2.8827 10.567-2.9976 15.987-0.5746 27.112-1.398 86.031-2.7478 86.931-21.571 0.8867-42.206-0.5669-62.451-2.9977z"/>
 </g>
</svg>
