<?xml version="1.0" encoding="UTF-8" standalone="no"?>
<!-- Created with Inkscape (http://www.inkscape.org/) -->
<svg
   xmlns:svg="http://www.w3.org/2000/svg"
   xmlns="http://www.w3.org/2000/svg"
   version="1.0"
   width="580"
   height="1400"
   id="svg2">
  <defs
     id="defs4" />
  <g
     transform="translate(-238.84225,564.67076)"
     id="layer1">
    <path
       d="M 511.06812,796.80695 C 505.78726,791.1538 501.46657,783.19359 501.46657,779.11762 C 501.46657,769.00458 493.55158,762.84517 469.36551,754.13667 C 458.0807,750.07347 446.20034,743.82373 442.96467,740.24838 C 430.75289,726.75449 440.67181,686.72834 457.25917,682.56518 C 462.69166,681.20173 469.575,673.07679 478.95796,656.95241 C 495.49472,628.53446 506.13718,616.34085 516.72198,613.68422 C 525.37663,611.51206 527.60469,605.20575 519.71748,605.20575 C 517.01388,605.20575 502.34931,611.38158 487.12952,618.92984 C 467.62086,628.60514 457.11085,632.0472 451.50375,630.59737 C 442.08881,628.16293 428.65748,609.57487 428.65748,598.97963 C 428.65748,590.14851 483.8417,533.02462 500.63918,524.46783 C 513.05996,518.14059 513.94916,520.20053 504.77607,534.05143 C 496.02447,547.26585 496.45704,552.25371 506.35454,552.25371 C 516.83041,552.25371 525.43507,539.46525 525.92118,523.17329 L 526.28784,510.88491 L 505.42006,512.05926 C 482.11493,513.37077 471.68103,507.79288 471.68103,494.02256 C 471.68103,487.46283 469.5459,488.73787 455.58165,503.63662 C 438.90972,521.42429 352.61903,633.21581 340.95564,652.13717 C 333.3225,664.52031 314.79136,678.01484 305.41955,678.01484 C 291.30014,678.01484 275.31784,649.28074 279.52803,631.46519 C 283.76013,613.5567 296.20427,584.33177 302.68769,577.07499 C 305.94016,573.43453 314.24933,560.03103 321.15247,547.28945 C 328.05562,534.54785 337.7799,518.91046 342.76199,512.53967 C 347.74408,506.16886 355.40315,494.35536 359.78208,486.28742 C 372.75057,462.39367 376.4018,464.6161 375.14149,495.6363 C 374.54155,510.40238 374.94417,522.48022 376.03624,522.47594 C 381.45333,522.45473 405.69257,501.58902 420.5476,484.15947 C 441.69147,459.35121 487.63349,400.0346 494.55651,388.60523 C 499.20713,380.92746 499.24062,379.56744 494.84755,376.78551 C 492.11722,375.05649 483.42977,373.61905 475.54213,373.59118 C 465.56953,373.55594 461.61356,372.28035 462.55546,369.40363 C 463.75557,365.73838 472.66716,362.88179 497.18995,358.3017 C 505.42006,356.76457 526.6635,328.25133 525.28778,320.58845 C 524.7976,317.85811 522.11953,310.3274 519.33652,303.85355 L 514.27648,292.08287 L 483.38076,302.429 C 433.06895,319.27699 433.74127,318.4568 430.51368,366.92151 C 428.4101,398.50882 425.0239,413.91416 419.80184,415.65483 C 417.86007,416.30211 411.37535,404.48492 405.39138,389.39445 C 390.27088,351.26351 389.18423,349.37123 384.57576,353.14623 C 382.42742,354.90602 373.96794,358.13765 365.77691,360.32767 C 355.84493,362.98316 346.91949,368.60292 338.98188,377.19877 C 325.79804,391.4759 319.79941,393.00428 311.77019,384.13208 C 305.1655,376.83399 296.27733,352.40618 296.27733,341.55229 C 296.27733,324.28731 322.07228,284.18391 333.17724,284.18391 C 336.90491,284.18391 344.00931,288.52429 348.96483,293.82922 L 357.9749,303.47451 L 367.91134,297.18322 L 377.84779,290.89191 L 378.26623,248.65123 C 378.49635,225.41888 380.20569,155.03053 382.06476,92.232689 C 387.84918,-103.1602 388.84448,-149.36107 387.26943,-149.36107 C 384.06301,-149.36107 369.42743,-116.76765 364.17164,-97.922419 C 353.38162,-59.233455 342.36849,-28.4478 336.66669,-21.036063 L 330.87531,-13.507928 L 318.37877,-26.305588 C 308.41262,-36.511833 305.60721,-52.230281 301.98366,-69.298803 C 300.55617,-76.02288 294.98097,-82.95648 294.87093,-89.845139 C 294.666,-102.67321 302.25813,-120.43443 348.40678,-215.08787 C 377.98287,-275.75005 402.18145,-328.22224 402.18145,-331.69274 C 402.18145,-341.31788 394.76634,-339.26569 382.14628,-326.14788 C 366.82583,-310.22323 360.67786,-307.17091 352.61475,-311.48614 C 343.10755,-316.57424 338.68763,-326.5982 333.62628,-354.5503 C 331.15434,-368.20199 328.27497,-383.44882 327.22768,-388.4321 C 323.32412,-407.00652 327.58038,-409.01341 347.14136,-397.82172 C 371.01314,-384.16371 379.26916,-384.69279 396.97712,-401.01539 L 411.48192,-414.38545 L 410.82031,-448.17582 C 410.44382,-467.40434 408.40707,-485.14261 406.09407,-489.33698 C 397.60285,-504.73501 421.74551,-536.573 441.91303,-536.573 C 452.02817,-536.573 461.75252,-529.15742 461.75252,-521.44383 C 461.75252,-518.84352 463.93405,-516.71597 466.60035,-516.71597 C 469.26665,-516.71597 473.08489,-513.65773 475.08532,-509.91988 C 479.57714,-501.52681 497.51935,-490.269 506.43081,-490.25222 C 510.07194,-490.24537 517.39179,-484.798 522.70087,-478.14424 L 532.35187,-466.04873 L 524.65083,-451.53212 C 515.636,-434.53898 484.79345,-404.94891 464.43058,-393.75733 C 451.00716,-386.37972 449.99062,-384.79437 447.12871,-366.77448 C 444.58761,-350.77459 444.9689,-346.74903 449.45,-342.26793 C 454.39281,-337.32512 458.27677,-340.5054 499.14643,-382.9601 C 574.86547,-461.61575 581.29093,-469.75736 592.49506,-501.2406 C 599.08527,-519.7589 604.88782,-523.29659 614.4651,-514.63522 C 628.21584,-502.19953 634.96016,-483.39003 636.48938,-453.21064 C 638.14363,-420.56433 633.70665,-409.59598 612.6441,-394.26435 C 606.39256,-389.71378 598.6684,-381.60261 595.47937,-376.23953 C 592.29033,-370.87644 586.07922,-363.39027 581.67692,-359.60358 L 573.67272,-352.71865 L 580.28038,-344.55854 L 586.888,-336.39847 L 606.23048,-354.84544 C 632.25087,-379.66112 637.94709,-382.50641 649.53696,-376.47695 C 668.52763,-366.59743 680.17976,-348.41213 680.17976,-328.6532 C 680.17976,-318.9282 677.18333,-311.42115 668.53429,-299.47747 C 634.05388,-251.86266 632.62103,-247.8933 644.24063,-232.17697 C 652.78439,-220.62091 656.52307,-191.49565 650.40842,-184.12797 C 648.13463,-181.38823 642.58404,-179.1466 638.07378,-179.1466 C 630.66797,-179.1466 575.21032,-149.95874 559.71919,-137.90787 C 552.12248,-131.99825 555.95747,-125.79234 571.07588,-119.5301 C 584.21246,-114.08875 584.64154,-99.027319 572.03478,-85.868729 C 561.28488,-74.648259 562.54232,-72.736259 576.75778,-78.687249 C 586.34769,-82.701869 587.51365,-84.623989 587.51365,-96.418509 C 587.51365,-105.97087 588.89323,-109.64702 592.47792,-109.64702 C 595.20825,-109.64702 597.44481,-108.53008 597.44809,-107.1649 C 597.45134,-105.79973 604.17343,-100.43763 612.38611,-95.249119 C 640.55193,-77.454789 643.71681,-64.16051 625.17428,-41.531813 C 613.49465,-27.278377 612.70464,-26.909426 593.8629,-26.909426 C 570.17435,-26.909426 564.06314,-21.520132 554.80667,7.5332359 C 547.62088,30.087429 543.25387,55.828153 546.61335,55.828153 C 547.82418,55.828153 556.68829,48.381768 566.31139,39.28063 C 585.41689,21.211443 588.45677,20.47684 615.24756,27.454947 C 637.71263,33.306354 645.31785,37.293915 651.87927,46.661632 C 659.09883,56.969004 658.29235,66.741706 648.71003,85.067592 C 641.17501,99.478022 640.71572,102.5761 643.74576,118.55342 C 645.58221,128.23685 647.08473,149.38825 647.08473,165.55653 L 647.08473,194.95339 L 656.18587,192.96201 C 661.19148,191.86673 669.60474,189.60442 674.88197,187.93467 C 680.15924,186.26496 690.66433,184.89879 698.22668,184.89879 C 709.39758,184.89879 713.93386,186.91839 722.41333,195.66703 C 733.74521,207.35851 743.06032,229.65362 743.06032,245.08407 C 743.06032,252.23181 738.57423,259.538 726.06219,272.76761 C 706.70722,293.23264 696.06839,297.37599 662.80487,297.40345 C 638.18354,297.42382 633.63755,292.72866 648.71388,282.85025 C 653.25039,279.87782 660.8173,269.83791 665.52925,260.53929 L 674.09645,243.63273 L 661.41799,245.99879 C 644.29709,249.19385 590.59875,264.48638 583.28408,268.25018 C 575.79325,272.10461 578.31559,276.2043 589.96452,279.10822 C 594.98735,280.36037 603.93706,283.67358 609.85281,286.47097 C 618.89788,290.74811 620.6087,293.35643 620.6087,302.86957 C 620.6087,323.92148 613.1999,335.21424 593.71878,343.85608 L 575.93039,351.747 L 620.89183,355.77179 C 659.98126,359.27092 668.83147,361.20369 688.65755,370.57105 C 701.1999,376.49705 717.4763,385.91885 724.82735,391.50844 C 732.17842,397.09802 745.16702,405.35047 753.69098,409.84725 C 764.29361,415.44064 770.85053,421.71298 774.44891,429.70428 C 779.30476,440.48813 780.48965,462.8971 776.20402,462.8971 C 775.18489,462.8971 771.57965,468.04329 768.19238,474.3331 C 764.8051,480.62288 761.11556,485.54029 759.9934,485.26064 C 756.70165,484.44038 743.1606,489.34173 715.48719,501.37021 C 690.01534,512.4418 689.29149,512.55353 673.47117,507.8554 L 657.37351,503.07491 L 653.78782,513.93962 C 649.03948,528.32719 641.58284,534.51503 603.30346,555.83369 C 585.59457,565.69618 571.07413,574.77675 571.0358,576.01277 C 570.99748,577.24876 579.52948,580.6474 589.99579,583.56524 C 643.8883,598.58964 654.00901,606.04296 656.96332,632.88308 C 658.0962,643.17532 658.18228,652.95673 657.15465,654.61949 C 656.12697,656.28229 648.77561,661.34081 640.81828,665.86066 C 611.39381,682.57405 560.90028,754.64194 555.66174,787.40201 C 552.21318,808.96816 527.33059,814.216 511.06812,796.80695 z M 540.83701,722.99299 C 551.15655,708.60022 551.55778,707.33558 544.35144,711.91588 C 527.10393,722.87821 509.78019,703.75636 519.6565,684.65771 C 522.36774,679.41475 526.08589,674.19808 527.91905,673.06515 C 529.75223,671.93217 531.21897,668.48685 531.1785,665.40888 C 531.12074,661.01696 529.67539,661.59318 524.46245,668.08634 C 510.88346,685.00014 491.03928,720.86341 493.26588,724.4661 C 497.33614,731.05195 516.15421,741.03849 522.77341,740.12542 C 526.30115,739.63879 534.42978,731.9292 540.83701,722.99299 z M 594.99807,653.19357 C 596.6867,649.31045 587.91904,626.86375 585.61397,629.16878 C 584.75241,630.03038 581.31442,640.5916 577.97398,652.6382 L 571.9005,674.54109 L 582.72971,665.52207 C 588.68574,660.56161 594.20651,655.01379 594.99807,653.19357 z M 584.42173,512.42323 C 592.11248,508.30723 592.66119,501.63753 585.77891,495.92575 C 579.56543,490.76902 578.21604,492.01037 575.55118,505.33461 C 573.28163,516.68237 574.55785,517.70222 584.42173,512.42323 z M 682.37866,462.09919 C 692.81509,447.05485 691.79341,445.38861 660.96822,427.18134 C 624.31339,405.53073 601.96282,396.38193 573.64959,391.43912 C 558.84634,388.85481 546.41756,387.12128 546.0301,387.58683 C 545.64262,388.05239 539.1805,395.59792 531.66982,404.3547 C 521.40189,416.32623 518.01409,423.09983 518.01409,431.65811 C 518.01409,448.21293 525.90979,446.38655 545.87911,425.21251 L 562.69238,407.38495 L 580.89465,410.07815 C 590.9059,411.5594 601.77084,412.88008 605.03898,413.01296 C 612.50375,413.31647 627.2277,427.75152 627.2277,434.76632 C 627.2277,439.95596 620.5625,447.47822 603.05453,462.04785 C 598.14749,466.13131 594.13267,472.24688 594.13267,475.63799 C 594.13267,480.86894 597.69733,482.13495 617.64613,483.98901 C 630.57854,485.19092 644.35434,488.44741 648.25904,491.2256 C 654.92368,495.96752 655.92289,495.60942 664.57409,485.37863 C 669.64267,479.38459 677.65471,468.90885 682.37866,462.09919 z M 471.68103,243.44 C 481.69228,239.59365 490.33588,236.18587 490.88903,235.8672 C 491.44218,235.54856 488.84149,230.27974 485.10973,224.15871 C 476.19664,209.53888 476.52015,194.31 486.18311,173.63487 C 492.42969,160.26948 494.50065,148.86717 496.15908,118.70872 C 497.31019,97.77611 499.68678,68.081553 501.44041,52.720831 C 503.19406,37.360109 504.14965,24.313014 503.56396,23.727329 C 502.97824,23.141644 496.31998,24.842565 488.76776,27.507152 C 475.08438,32.334917 475.00249,32.315466 465.29849,21.932184 C 459.94261,16.201411 453.64023,7.9245219 451.29322,3.5390949 C 447.39837,-3.7385421 447.94126,-5.2522021 457.51423,-13.805619 C 463.77237,-19.397298 469.55163,-28.935042 471.84343,-37.453812 C 476.96631,-56.495733 483.10124,-67.866586 496.16941,-82.541319 C 506.13193,-93.728579 516.29658,-120.18984 512.20369,-124.28275 C 511.25978,-125.22668 506.59617,-123.2762 501.84013,-119.94832 C 486.64657,-109.3171 475.86319,-109.30919 466.93249,-119.9227 C 456.6574,-132.13398 450.34371,-160.22251 455.6206,-170.24742 C 461.32149,-181.07783 464.74328,-182.35013 488.31953,-182.40544 C 513.25935,-182.46395 522.95612,-187.56273 529.94692,-204.29409 C 532.48502,-210.36856 534.56159,-221.34351 534.56159,-228.68285 C 534.56159,-239.56944 533.40775,-242.02717 528.29667,-242.02717 C 520.53675,-242.02717 518.01409,-235.81792 518.01409,-216.71764 C 518.01409,-195.18581 513.70789,-189.07511 498.53448,-189.07511 C 480.11536,-189.07511 465.29484,-195.14987 463.41254,-203.47123 C 454.06182,-244.80904 453.26407,-239.4041 473.79368,-273.80629 C 490.44821,-301.71482 493.51122,-305.13685 501.0444,-304.25101 C 508.26439,-303.40199 514.04877,-296.77169 520.06853,-282.44469 C 520.28836,-281.92148 524.46791,-283.31579 529.35644,-285.54314 C 537.51282,-289.25942 538.05955,-290.68842 535.99669,-302.89827 C 534.76034,-310.21625 530.82599,-320.15698 527.25369,-324.98875 C 521.73046,-332.45932 521.27231,-335.63443 524.1919,-346.20827 C 528.70642,-362.55851 536.82413,-371.09781 547.85266,-371.09781 C 555.08062,-371.09781 558.32182,-373.95074 564.65357,-385.88617 C 569.99702,-395.95874 571.42,-401.75328 569.11593,-404.05737 C 560.98113,-412.19215 475.91763,-306.49448 451.47412,-257.87878 C 433.47964,-222.08952 429.75187,-201.437 426.51058,-119.57553 C 420.75359,25.821879 424.32521,162.17234 435.69408,231.01342 C 439.91694,256.58383 438.62856,256.13895 471.68103,243.44 z M 552.80937,191.4298 C 557.25324,182.83631 557.2132,180.43634 552.4265,168.47313 C 542.72329,144.22245 533.34701,155.98205 538.77532,185.59426 C 542.46317,205.71201 544.89983,206.72518 552.80937,191.4298 z M 607.26263,180.76191 L 607.1546,156.76802 L 600.48678,174.97028 C 589.06297,206.15573 589.14643,204.75582 598.71093,204.75582 C 607.26458,204.75582 607.36935,204.46181 607.26263,180.76191 z M 600.67457,111.93451 C 597.12435,94.727736 594.20005,79.480095 594.17615,78.050872 C 594.10559,73.834769 582.85736,81.099985 571.55102,92.66439 C 559.52508,104.96482 558.33257,108.86795 567.3183,106.5181 C 577.55162,103.84203 586.97999,111.25665 596.01438,129.08515 C 600.68488,138.30191 605.09646,145.25267 605.81785,144.53123 C 606.53926,143.80982 604.2248,129.1413 600.67457,111.93451 z M 517.91345,-64.773902 C 517.83308,-70.215744 517.24731,-70.588156 515.00426,-66.62347 C 513.45957,-63.893139 507.82844,-58.609101 506.6039,-54.058532 C 504.46462,-46.108682 507.94389,-45.363192 512.87847,-51.535887 C 515.70306,-55.069178 517.96881,-61.026275 517.91345,-64.773902 z M 600.47179,-276.10681 C 619.63427,-312.68832 618.29475,-328.02912 598.1737,-302.42561 C 580.31989,-279.70707 572.1419,-255.19257 579.84662,-247.48785 C 583.12642,-244.2081 585.45445,-247.43844 600.47179,-276.10681 z M 470.69609,-464.41314 C 484.19039,-477.49233 484.35054,-480.31143 471.59912,-480.31143 C 463.89877,-480.31143 460.84385,-478.35241 458.3611,-471.82223 C 454.5752,-461.86459 454.17209,-453.8354 457.45808,-453.8354 C 458.7366,-453.8354 464.69371,-458.5954 470.69609,-464.41314 z "
       style="fill:#000000"
       id="path2314" />
    <g
       transform="translate(444.35714,-16.428571)"
       id="g2298" />
  </g>
</svg>
